# xmcd
#
# Track frame offsets:
#	150
#	14558
#	27855
#	43244
#	54922
#	70319
#	85107
#	98569
#	110554
#	123662
#	137379
#	147886
#	161200
#	174116
#	189551
#	201416
#	212966
#	226521
#
# Disc length: 3187 seconds
#
# Revision: 0
# Processed by: cddbd v1.5.2PL0 Copyright (c) Steve Scherf et al.
# Submitted via: dBpowerAMP V4.0
#
DISCID=f80c7112
DTITLE=Nat "King Cole - Crooners
DYEAR=1900
DGENRE=Blues
TTITLE0=Nat "King" Cole - Sweet Lorraine
TTITLE1=Nat "King" Cole - It's Only a Paper Moon
TTITLE2=Nat "King" Cole - Embraceable You
TTITLE3=Nat "King" Cole - Straighten Up and Fly Right
TTITLE4=Nat "King" Cole - All For You
TTITLE5=Nat "King" Cole - That ain't Right
TTITLE6=Nat "King" Cole - Hit The Jive Jack
TTITLE7=Nat "King" Cole - Stop! The Red Light's On
TTITLE8=Nat "King" - For Sentimental Reasons
TTITLE9=Nat "King" Cole - Get Your Kicks On Route 66
TTITLE10=Nat "King" Cole - Sweet Georgia Brown
TTITLE11=Nat "King" Cole - It Only Happens Once
TTITLE12=Nat "King" Cole - Your Nobody Till Somebody Loves You
TTITLE13=Nat "King" Cole - Don't Blame Me
TTITLE14=Nat "King" Cole - Nothing Ever Happens
TTITLE15=Nat "King" Cole - Honeysuckle Rose
TTITLE16=Nat "King" Cole - What Is This Thing Called Love
TTITLE17=Nat "King" Cole - This Side Up
EXTD=
EXTT0=
EXTT1=
EXTT2=
EXTT3=
EXTT4=
EXTT5=
EXTT6=
EXTT7=
EXTT8=
EXTT9=
EXTT10=
EXTT11=
EXTT12=
EXTT13=
EXTT14=
EXTT15=
EXTT16=
EXTT17=
PLAYORDER=
